<mxfile host="app.diagrams.net" modified="2023-11-09T09:38:26.619Z" agent="Mozilla/5.0 (Windows NT 10.0; Win64; x64) AppleWebKit/537.36 (KHTML, like Gecko) Chrome/116.0.0.0 Safari/537.36 OPR/102.0.0.0" etag="m45dYHNT0pKlmUAcFIsQ" version="22.1.0" type="github">
  <diagram name="Page-1" id="EQsmm1MVwUZvhst0feik">
    <mxGraphModel dx="1441" dy="719" grid="1" gridSize="10" guides="1" tooltips="1" connect="1" arrows="1" fold="1" page="1" pageScale="1" pageWidth="850" pageHeight="1100" math="0" shadow="0">
      <root>
        <mxCell id="0" />
        <mxCell id="1" parent="0" />
        <mxCell id="ISMEBBSCNyVvfR64w5Tn-1" value="Firebase" style="shape=umlActor;verticalLabelPosition=bottom;verticalAlign=top;html=1;outlineConnect=0;" vertex="1" parent="1">
          <mxGeometry x="10" y="210" width="30" height="60" as="geometry" />
        </mxCell>
        <mxCell id="ISMEBBSCNyVvfR64w5Tn-2" value="Customer" style="shape=umlActor;verticalLabelPosition=bottom;verticalAlign=top;html=1;outlineConnect=0;" vertex="1" parent="1">
          <mxGeometry x="840" y="490" width="30" height="60" as="geometry" />
        </mxCell>
        <mxCell id="ISMEBBSCNyVvfR64w5Tn-3" value="VNPay" style="shape=umlActor;verticalLabelPosition=bottom;verticalAlign=top;html=1;outlineConnect=0;" vertex="1" parent="1">
          <mxGeometry x="10" y="650" width="30" height="60" as="geometry" />
        </mxCell>
        <mxCell id="ISMEBBSCNyVvfR64w5Tn-4" value="Guest" style="shape=umlActor;verticalLabelPosition=bottom;verticalAlign=top;html=1;outlineConnect=0;" vertex="1" parent="1">
          <mxGeometry x="840" y="90" width="30" height="60" as="geometry" />
        </mxCell>
        <mxCell id="ISMEBBSCNyVvfR64w5Tn-5" value="Admin" style="shape=umlActor;verticalLabelPosition=bottom;verticalAlign=top;html=1;outlineConnect=0;" vertex="1" parent="1">
          <mxGeometry x="10" y="420" width="30" height="60" as="geometry" />
        </mxCell>
        <mxCell id="ISMEBBSCNyVvfR64w5Tn-7" value="" style="swimlane;startSize=0;" vertex="1" parent="1">
          <mxGeometry x="70" y="40" width="740" height="720" as="geometry" />
        </mxCell>
        <mxCell id="ISMEBBSCNyVvfR64w5Tn-9" value="Browse&lt;br&gt;Products" style="ellipse;whiteSpace=wrap;html=1;align=center;" vertex="1" parent="ISMEBBSCNyVvfR64w5Tn-7">
          <mxGeometry x="510" y="10" width="100" height="40" as="geometry" />
        </mxCell>
        <mxCell id="ISMEBBSCNyVvfR64w5Tn-11" value="View Feedback" style="ellipse;whiteSpace=wrap;html=1;align=center;" vertex="1" parent="ISMEBBSCNyVvfR64w5Tn-7">
          <mxGeometry x="510" y="60" width="100" height="40" as="geometry" />
        </mxCell>
        <mxCell id="ISMEBBSCNyVvfR64w5Tn-12" value="Register new Account" style="ellipse;whiteSpace=wrap;html=1;align=center;" vertex="1" parent="ISMEBBSCNyVvfR64w5Tn-7">
          <mxGeometry x="510" y="110" width="100" height="40" as="geometry" />
        </mxCell>
        <mxCell id="ISMEBBSCNyVvfR64w5Tn-10" value="Check register email and password" style="ellipse;whiteSpace=wrap;html=1;align=center;" vertex="1" parent="ISMEBBSCNyVvfR64w5Tn-7">
          <mxGeometry x="70" y="120" width="120" height="60" as="geometry" />
        </mxCell>
        <mxCell id="ISMEBBSCNyVvfR64w5Tn-16" value="Check login" style="ellipse;whiteSpace=wrap;html=1;align=center;" vertex="1" parent="ISMEBBSCNyVvfR64w5Tn-7">
          <mxGeometry x="80" y="220" width="100" height="40" as="geometry" />
        </mxCell>
        <mxCell id="ISMEBBSCNyVvfR64w5Tn-21" value="Manage account" style="ellipse;whiteSpace=wrap;html=1;align=center;" vertex="1" parent="ISMEBBSCNyVvfR64w5Tn-7">
          <mxGeometry x="550" y="180" width="120" height="50" as="geometry" />
        </mxCell>
        <mxCell id="ISMEBBSCNyVvfR64w5Tn-20" value="Manage Personal Order" style="ellipse;whiteSpace=wrap;html=1;align=center;" vertex="1" parent="ISMEBBSCNyVvfR64w5Tn-7">
          <mxGeometry x="550" y="250" width="120" height="50" as="geometry" />
        </mxCell>
        <mxCell id="ISMEBBSCNyVvfR64w5Tn-19" value="Manage Personal&lt;br&gt;Feedback" style="ellipse;whiteSpace=wrap;html=1;align=center;" vertex="1" parent="ISMEBBSCNyVvfR64w5Tn-7">
          <mxGeometry x="550" y="320" width="120" height="50" as="geometry" />
        </mxCell>
        <mxCell id="ISMEBBSCNyVvfR64w5Tn-22" value="Pay" style="ellipse;whiteSpace=wrap;html=1;align=center;" vertex="1" parent="ISMEBBSCNyVvfR64w5Tn-7">
          <mxGeometry x="355" y="620" width="100" height="40" as="geometry" />
        </mxCell>
        <mxCell id="ISMEBBSCNyVvfR64w5Tn-24" value="Manage Products" style="ellipse;whiteSpace=wrap;html=1;align=center;" vertex="1" parent="ISMEBBSCNyVvfR64w5Tn-7">
          <mxGeometry x="30" y="320" width="110" height="50" as="geometry" />
        </mxCell>
        <mxCell id="ISMEBBSCNyVvfR64w5Tn-25" value="Manage Orders" style="ellipse;whiteSpace=wrap;html=1;align=center;" vertex="1" parent="ISMEBBSCNyVvfR64w5Tn-7">
          <mxGeometry x="30" y="390" width="110" height="50" as="geometry" />
        </mxCell>
        <mxCell id="ISMEBBSCNyVvfR64w5Tn-26" value="Manage Feedback" style="ellipse;whiteSpace=wrap;html=1;align=center;" vertex="1" parent="ISMEBBSCNyVvfR64w5Tn-7">
          <mxGeometry x="30" y="460" width="110" height="50" as="geometry" />
        </mxCell>
        <mxCell id="ISMEBBSCNyVvfR64w5Tn-31" value="Login" style="ellipse;whiteSpace=wrap;html=1;" vertex="1" parent="ISMEBBSCNyVvfR64w5Tn-7">
          <mxGeometry x="335" y="205" width="140" height="70" as="geometry" />
        </mxCell>
        <mxCell id="ISMEBBSCNyVvfR64w5Tn-35" value="include" style="endArrow=classic;html=1;rounded=0;exitX=0;exitY=0.5;exitDx=0;exitDy=0;entryX=1;entryY=0.5;entryDx=0;entryDy=0;dashed=1;" edge="1" parent="ISMEBBSCNyVvfR64w5Tn-7" source="ISMEBBSCNyVvfR64w5Tn-21" target="ISMEBBSCNyVvfR64w5Tn-31">
          <mxGeometry width="50" height="50" relative="1" as="geometry">
            <mxPoint x="250" y="390" as="sourcePoint" />
            <mxPoint x="300" y="340" as="targetPoint" />
          </mxGeometry>
        </mxCell>
        <mxCell id="ISMEBBSCNyVvfR64w5Tn-36" value="include" style="endArrow=classic;html=1;rounded=0;exitX=0;exitY=0.5;exitDx=0;exitDy=0;entryX=1;entryY=0.5;entryDx=0;entryDy=0;dashed=1;" edge="1" parent="ISMEBBSCNyVvfR64w5Tn-7" source="ISMEBBSCNyVvfR64w5Tn-20" target="ISMEBBSCNyVvfR64w5Tn-31">
          <mxGeometry width="50" height="50" relative="1" as="geometry">
            <mxPoint x="250" y="390" as="sourcePoint" />
            <mxPoint x="300" y="340" as="targetPoint" />
          </mxGeometry>
        </mxCell>
        <mxCell id="ISMEBBSCNyVvfR64w5Tn-37" value="include" style="endArrow=classic;html=1;rounded=0;exitX=0;exitY=0.5;exitDx=0;exitDy=0;entryX=1;entryY=0.5;entryDx=0;entryDy=0;dashed=1;" edge="1" parent="ISMEBBSCNyVvfR64w5Tn-7" source="ISMEBBSCNyVvfR64w5Tn-19" target="ISMEBBSCNyVvfR64w5Tn-31">
          <mxGeometry width="50" height="50" relative="1" as="geometry">
            <mxPoint x="250" y="390" as="sourcePoint" />
            <mxPoint x="300" y="340" as="targetPoint" />
          </mxGeometry>
        </mxCell>
        <mxCell id="ISMEBBSCNyVvfR64w5Tn-39" value="include" style="endArrow=classic;html=1;rounded=0;exitX=0;exitY=0.5;exitDx=0;exitDy=0;entryX=1;entryY=0.5;entryDx=0;entryDy=0;dashed=1;" edge="1" parent="ISMEBBSCNyVvfR64w5Tn-7" source="ISMEBBSCNyVvfR64w5Tn-12" target="ISMEBBSCNyVvfR64w5Tn-10">
          <mxGeometry width="50" height="50" relative="1" as="geometry">
            <mxPoint x="250" y="390" as="sourcePoint" />
            <mxPoint x="300" y="340" as="targetPoint" />
          </mxGeometry>
        </mxCell>
        <mxCell id="ISMEBBSCNyVvfR64w5Tn-40" value="Login" style="endArrow=classic;html=1;rounded=0;exitX=0;exitY=0.5;exitDx=0;exitDy=0;entryX=1;entryY=0.5;entryDx=0;entryDy=0;dashed=1;" edge="1" parent="ISMEBBSCNyVvfR64w5Tn-7" source="ISMEBBSCNyVvfR64w5Tn-31" target="ISMEBBSCNyVvfR64w5Tn-16">
          <mxGeometry width="50" height="50" relative="1" as="geometry">
            <mxPoint x="250" y="390" as="sourcePoint" />
            <mxPoint x="300" y="340" as="targetPoint" />
          </mxGeometry>
        </mxCell>
        <mxCell id="ISMEBBSCNyVvfR64w5Tn-46" value="Checkout" style="ellipse;whiteSpace=wrap;html=1;align=center;" vertex="1" parent="ISMEBBSCNyVvfR64w5Tn-7">
          <mxGeometry x="355" y="530" width="100" height="40" as="geometry" />
        </mxCell>
        <mxCell id="ISMEBBSCNyVvfR64w5Tn-47" value="Make Order" style="ellipse;whiteSpace=wrap;html=1;align=center;" vertex="1" parent="ISMEBBSCNyVvfR64w5Tn-7">
          <mxGeometry x="355" y="440" width="100" height="40" as="geometry" />
        </mxCell>
        <mxCell id="ISMEBBSCNyVvfR64w5Tn-48" value="Delete items from cart" style="ellipse;whiteSpace=wrap;html=1;align=center;" vertex="1" parent="ISMEBBSCNyVvfR64w5Tn-7">
          <mxGeometry x="160" y="320" width="110" height="50" as="geometry" />
        </mxCell>
        <mxCell id="ISMEBBSCNyVvfR64w5Tn-49" value="Add products &lt;br&gt;to cart" style="ellipse;whiteSpace=wrap;html=1;align=center;" vertex="1" parent="ISMEBBSCNyVvfR64w5Tn-7">
          <mxGeometry x="160" y="390" width="110" height="50" as="geometry" />
        </mxCell>
        <mxCell id="ISMEBBSCNyVvfR64w5Tn-50" value="Manage cart" style="ellipse;whiteSpace=wrap;html=1;align=center;" vertex="1" parent="ISMEBBSCNyVvfR64w5Tn-7">
          <mxGeometry x="280" y="350" width="100" height="40" as="geometry" />
        </mxCell>
        <mxCell id="ISMEBBSCNyVvfR64w5Tn-51" value="Update product quantity" style="ellipse;whiteSpace=wrap;html=1;align=center;" vertex="1" parent="ISMEBBSCNyVvfR64w5Tn-7">
          <mxGeometry x="240" y="270" width="115" height="40" as="geometry" />
        </mxCell>
        <mxCell id="ISMEBBSCNyVvfR64w5Tn-52" value="include" style="endArrow=classic;html=1;rounded=0;exitX=0.5;exitY=0;exitDx=0;exitDy=0;entryX=0.5;entryY=1;entryDx=0;entryDy=0;dashed=1;" edge="1" parent="ISMEBBSCNyVvfR64w5Tn-7" source="ISMEBBSCNyVvfR64w5Tn-47" target="ISMEBBSCNyVvfR64w5Tn-31">
          <mxGeometry width="50" height="50" relative="1" as="geometry">
            <mxPoint x="250" y="390" as="sourcePoint" />
            <mxPoint x="300" y="340" as="targetPoint" />
          </mxGeometry>
        </mxCell>
        <mxCell id="ISMEBBSCNyVvfR64w5Tn-54" value="include" style="endArrow=classic;html=1;rounded=0;exitX=1;exitY=0.5;exitDx=0;exitDy=0;entryX=0.322;entryY=0.992;entryDx=0;entryDy=0;dashed=1;entryPerimeter=0;" edge="1" parent="ISMEBBSCNyVvfR64w5Tn-7" source="ISMEBBSCNyVvfR64w5Tn-50" target="ISMEBBSCNyVvfR64w5Tn-31">
          <mxGeometry width="50" height="50" relative="1" as="geometry">
            <mxPoint x="250" y="390" as="sourcePoint" />
            <mxPoint x="300" y="340" as="targetPoint" />
          </mxGeometry>
        </mxCell>
        <mxCell id="ISMEBBSCNyVvfR64w5Tn-55" value="" style="endArrow=classic;html=1;rounded=0;exitX=0.5;exitY=1;exitDx=0;exitDy=0;entryX=0.5;entryY=0;entryDx=0;entryDy=0;" edge="1" parent="ISMEBBSCNyVvfR64w5Tn-7" source="ISMEBBSCNyVvfR64w5Tn-51" target="ISMEBBSCNyVvfR64w5Tn-50">
          <mxGeometry width="50" height="50" relative="1" as="geometry">
            <mxPoint x="250" y="390" as="sourcePoint" />
            <mxPoint x="300" y="340" as="targetPoint" />
          </mxGeometry>
        </mxCell>
        <mxCell id="ISMEBBSCNyVvfR64w5Tn-56" value="" style="endArrow=classic;html=1;rounded=0;exitX=1;exitY=1;exitDx=0;exitDy=0;entryX=0;entryY=0.5;entryDx=0;entryDy=0;" edge="1" parent="ISMEBBSCNyVvfR64w5Tn-7" source="ISMEBBSCNyVvfR64w5Tn-48" target="ISMEBBSCNyVvfR64w5Tn-50">
          <mxGeometry width="50" height="50" relative="1" as="geometry">
            <mxPoint x="250" y="390" as="sourcePoint" />
            <mxPoint x="300" y="340" as="targetPoint" />
          </mxGeometry>
        </mxCell>
        <mxCell id="ISMEBBSCNyVvfR64w5Tn-57" value="" style="endArrow=classic;html=1;rounded=0;exitX=1;exitY=0.5;exitDx=0;exitDy=0;entryX=0.5;entryY=1;entryDx=0;entryDy=0;" edge="1" parent="ISMEBBSCNyVvfR64w5Tn-7" source="ISMEBBSCNyVvfR64w5Tn-49" target="ISMEBBSCNyVvfR64w5Tn-50">
          <mxGeometry width="50" height="50" relative="1" as="geometry">
            <mxPoint x="250" y="390" as="sourcePoint" />
            <mxPoint x="300" y="340" as="targetPoint" />
          </mxGeometry>
        </mxCell>
        <mxCell id="ISMEBBSCNyVvfR64w5Tn-59" value="include" style="endArrow=classic;html=1;rounded=0;exitX=0.5;exitY=1;exitDx=0;exitDy=0;entryX=0.5;entryY=0;entryDx=0;entryDy=0;dashed=1;" edge="1" parent="ISMEBBSCNyVvfR64w5Tn-7" source="ISMEBBSCNyVvfR64w5Tn-47" target="ISMEBBSCNyVvfR64w5Tn-46">
          <mxGeometry width="50" height="50" relative="1" as="geometry">
            <mxPoint x="250" y="390" as="sourcePoint" />
            <mxPoint x="300" y="340" as="targetPoint" />
          </mxGeometry>
        </mxCell>
        <mxCell id="ISMEBBSCNyVvfR64w5Tn-60" value="include" style="endArrow=classic;html=1;rounded=0;exitX=0.5;exitY=1;exitDx=0;exitDy=0;entryX=0.5;entryY=0;entryDx=0;entryDy=0;dashed=1;" edge="1" parent="ISMEBBSCNyVvfR64w5Tn-7" source="ISMEBBSCNyVvfR64w5Tn-46" target="ISMEBBSCNyVvfR64w5Tn-22">
          <mxGeometry width="50" height="50" relative="1" as="geometry">
            <mxPoint x="250" y="390" as="sourcePoint" />
            <mxPoint x="300" y="340" as="targetPoint" />
          </mxGeometry>
        </mxCell>
        <mxCell id="ISMEBBSCNyVvfR64w5Tn-13" value="" style="endArrow=none;html=1;rounded=0;entryX=1;entryY=0.5;entryDx=0;entryDy=0;" edge="1" parent="1" target="ISMEBBSCNyVvfR64w5Tn-9">
          <mxGeometry width="50" height="50" relative="1" as="geometry">
            <mxPoint x="830" y="120" as="sourcePoint" />
            <mxPoint x="370" y="380" as="targetPoint" />
          </mxGeometry>
        </mxCell>
        <mxCell id="ISMEBBSCNyVvfR64w5Tn-14" value="" style="endArrow=none;html=1;rounded=0;entryX=1;entryY=0.5;entryDx=0;entryDy=0;" edge="1" parent="1" target="ISMEBBSCNyVvfR64w5Tn-11">
          <mxGeometry width="50" height="50" relative="1" as="geometry">
            <mxPoint x="830" y="120" as="sourcePoint" />
            <mxPoint x="370" y="380" as="targetPoint" />
          </mxGeometry>
        </mxCell>
        <mxCell id="ISMEBBSCNyVvfR64w5Tn-15" value="" style="endArrow=none;html=1;rounded=0;entryX=1;entryY=0.5;entryDx=0;entryDy=0;" edge="1" parent="1" target="ISMEBBSCNyVvfR64w5Tn-12">
          <mxGeometry width="50" height="50" relative="1" as="geometry">
            <mxPoint x="830" y="120" as="sourcePoint" />
            <mxPoint x="370" y="380" as="targetPoint" />
          </mxGeometry>
        </mxCell>
        <mxCell id="ISMEBBSCNyVvfR64w5Tn-17" value="" style="endArrow=none;html=1;rounded=0;entryX=0;entryY=0.5;entryDx=0;entryDy=0;" edge="1" parent="1" target="ISMEBBSCNyVvfR64w5Tn-10">
          <mxGeometry width="50" height="50" relative="1" as="geometry">
            <mxPoint x="50" y="240" as="sourcePoint" />
            <mxPoint x="370" y="380" as="targetPoint" />
          </mxGeometry>
        </mxCell>
        <mxCell id="ISMEBBSCNyVvfR64w5Tn-18" value="" style="endArrow=none;html=1;rounded=0;entryX=0;entryY=0.5;entryDx=0;entryDy=0;" edge="1" parent="1" target="ISMEBBSCNyVvfR64w5Tn-16">
          <mxGeometry width="50" height="50" relative="1" as="geometry">
            <mxPoint x="50" y="240" as="sourcePoint" />
            <mxPoint x="370" y="380" as="targetPoint" />
          </mxGeometry>
        </mxCell>
        <mxCell id="ISMEBBSCNyVvfR64w5Tn-27" value="" style="endArrow=none;html=1;rounded=0;entryX=0;entryY=0.5;entryDx=0;entryDy=0;" edge="1" parent="1" target="ISMEBBSCNyVvfR64w5Tn-24">
          <mxGeometry width="50" height="50" relative="1" as="geometry">
            <mxPoint x="50" y="450" as="sourcePoint" />
            <mxPoint x="370" y="380" as="targetPoint" />
          </mxGeometry>
        </mxCell>
        <mxCell id="ISMEBBSCNyVvfR64w5Tn-28" value="" style="endArrow=none;html=1;rounded=0;entryX=0;entryY=0.5;entryDx=0;entryDy=0;" edge="1" parent="1" target="ISMEBBSCNyVvfR64w5Tn-25">
          <mxGeometry width="50" height="50" relative="1" as="geometry">
            <mxPoint x="50" y="450" as="sourcePoint" />
            <mxPoint x="370" y="380" as="targetPoint" />
          </mxGeometry>
        </mxCell>
        <mxCell id="ISMEBBSCNyVvfR64w5Tn-29" value="" style="endArrow=none;html=1;rounded=0;entryX=0;entryY=0.5;entryDx=0;entryDy=0;" edge="1" parent="1" target="ISMEBBSCNyVvfR64w5Tn-26">
          <mxGeometry width="50" height="50" relative="1" as="geometry">
            <mxPoint x="50" y="450" as="sourcePoint" />
            <mxPoint x="370" y="380" as="targetPoint" />
          </mxGeometry>
        </mxCell>
        <mxCell id="ISMEBBSCNyVvfR64w5Tn-32" value="" style="endArrow=none;html=1;rounded=0;entryX=1;entryY=0.5;entryDx=0;entryDy=0;" edge="1" parent="1" target="ISMEBBSCNyVvfR64w5Tn-19">
          <mxGeometry width="50" height="50" relative="1" as="geometry">
            <mxPoint x="830" y="520" as="sourcePoint" />
            <mxPoint x="370" y="380" as="targetPoint" />
          </mxGeometry>
        </mxCell>
        <mxCell id="ISMEBBSCNyVvfR64w5Tn-33" value="" style="endArrow=none;html=1;rounded=0;entryX=1;entryY=0.5;entryDx=0;entryDy=0;" edge="1" parent="1" target="ISMEBBSCNyVvfR64w5Tn-20">
          <mxGeometry width="50" height="50" relative="1" as="geometry">
            <mxPoint x="830" y="520" as="sourcePoint" />
            <mxPoint x="370" y="380" as="targetPoint" />
          </mxGeometry>
        </mxCell>
        <mxCell id="ISMEBBSCNyVvfR64w5Tn-34" value="" style="endArrow=none;html=1;rounded=0;exitX=1;exitY=0.5;exitDx=0;exitDy=0;" edge="1" parent="1" source="ISMEBBSCNyVvfR64w5Tn-21">
          <mxGeometry width="50" height="50" relative="1" as="geometry">
            <mxPoint x="320" y="430" as="sourcePoint" />
            <mxPoint x="830" y="520" as="targetPoint" />
          </mxGeometry>
        </mxCell>
        <mxCell id="ISMEBBSCNyVvfR64w5Tn-42" value="" style="endArrow=none;html=1;rounded=0;entryX=0.5;entryY=1;entryDx=0;entryDy=0;" edge="1" parent="1" target="ISMEBBSCNyVvfR64w5Tn-31">
          <mxGeometry width="50" height="50" relative="1" as="geometry">
            <mxPoint x="830" y="520" as="sourcePoint" />
            <mxPoint x="370" y="380" as="targetPoint" />
          </mxGeometry>
        </mxCell>
        <mxCell id="ISMEBBSCNyVvfR64w5Tn-45" value="" style="endArrow=none;html=1;rounded=0;entryX=0;entryY=0.5;entryDx=0;entryDy=0;" edge="1" parent="1" target="ISMEBBSCNyVvfR64w5Tn-22">
          <mxGeometry width="50" height="50" relative="1" as="geometry">
            <mxPoint x="50" y="690" as="sourcePoint" />
            <mxPoint x="370" y="380" as="targetPoint" />
          </mxGeometry>
        </mxCell>
        <mxCell id="ISMEBBSCNyVvfR64w5Tn-53" value="" style="endArrow=none;html=1;rounded=0;entryX=1;entryY=0.5;entryDx=0;entryDy=0;" edge="1" parent="1" target="ISMEBBSCNyVvfR64w5Tn-50">
          <mxGeometry width="50" height="50" relative="1" as="geometry">
            <mxPoint x="830" y="520" as="sourcePoint" />
            <mxPoint x="370" y="380" as="targetPoint" />
          </mxGeometry>
        </mxCell>
        <mxCell id="ISMEBBSCNyVvfR64w5Tn-58" value="include" style="endArrow=classic;html=1;rounded=0;exitX=0;exitY=0;exitDx=0;exitDy=0;dashed=1;" edge="1" parent="1" source="ISMEBBSCNyVvfR64w5Tn-47">
          <mxGeometry width="50" height="50" relative="1" as="geometry">
            <mxPoint x="320" y="430" as="sourcePoint" />
            <mxPoint x="400" y="430" as="targetPoint" />
          </mxGeometry>
        </mxCell>
      </root>
    </mxGraphModel>
  </diagram>
</mxfile>
